<svg width="193" height="193" viewBox="0 0 193 193" fill="none" xmlns="http://www.w3.org/2000/svg">
<path d="M85.4 46.9L71.2 61.7L64.3 42.4L85.4 46.9Z" fill="#781AB7"/>
<g opacity="0.2">
<path d="M81 45.9C81 46 81 46 81 45.9C81 50 77 53.3 72.1 53.3C70.6 53.3 69.2 53 67.9 52.5L71.2 61.6L85.4 46.8L81 45.9Z" fill="black"/>
</g>
<path opacity="0.2" d="M74.7 49.4001C74 49.4001 73.4 49 73.4 48.6C73.4 48.2 74 47.8 74.7 47.8C75.4 47.8 76 48.1 76 48.6C76 49 75.5 49.4001 74.7 49.4001Z" fill="white"/>
<path opacity="0.2" d="M72.6 48.2C72.5 49 71.3 49.6 70.1 49.4C68.9 49.2 68 48.3 68.2 47.5C68.3 46.7 69.5 46.1 70.7 46.3C71.9 46.5 72.8 47.4 72.6 48.2Z" fill="white"/>
<path opacity="0.2" d="M77.4 49.4C77.1 49.4 76.9 49.1 76.9 48.9C76.9 48.6 77.2 48.4 77.4 48.4C77.7 48.4 77.9 48.6 77.9 48.9C77.9 49.1 77.7 49.4 77.4 49.4Z" fill="white"/>
<path d="M131.6 42.4L124.7 61.7L110.5 46.9L131.6 42.4Z" fill="#781AB7"/>
<path opacity="0.2" d="M124.1 53.4001C119.2 53.4001 115.2 50.1 115.2 46C115.2 45.9 115.2 45.9 115.2 45.8L110.4 46.8L124.6 61.6L127.8 52.6C126.8 53.1 125.5 53.4001 124.1 53.4001Z" fill="black"/>
<path opacity="0.2" d="M121.7 49.4001C121 49.4001 120.4 49 120.4 48.6C120.4 48.2 121 47.8 121.7 47.8C122.4 47.8 123 48.1 123 48.6C123 49 122.4 49.4001 121.7 49.4001Z" fill="white"/>
<path opacity="0.2" d="M123.8 48.2C124 49 125.1 49.6 126.3 49.4C127.5 49.2 128.4 48.3 128.2 47.5C128 46.7 126.9 46.1 125.7 46.3C124.6 46.5 123.7 47.4 123.8 48.2Z" fill="white"/>
<path opacity="0.2" d="M119.1 49.4C118.8 49.4 118.6 49.1 118.6 48.9C118.6 48.6 118.9 48.4 119.1 48.4C119.4 48.4 119.6 48.6 119.6 48.9C119.6 49.1 119.4 49.4 119.1 49.4Z" fill="white"/>
<path d="M108.8 47.3L98 64.7L87.2 47.3H108.8Z" fill="#781AB7"/>
<path opacity="0.2" d="M104 47.3C104.4 48.1 104.6 49 104.6 50C104.6 53.5 101.6 56.4001 97.9 56.4001C94.2 56.4001 91.2 53.5 91.2 50C91.2 49 91.4 48.1 91.8 47.3H87.1L98 64.7L108.8 47.3H104Z" fill="black"/>
<path opacity="0.2" d="M97.9 52.4C96.4 52.4 95.2 51.8 95.2 51C95.2 50.2 96.4 49.6 97.9 49.6C99.4 49.6 100.6 50.2 100.6 51C100.7 51.7 99.5 52.4 97.9 52.4Z" fill="white"/>
<path opacity="0.2" d="M94 51.5C93.7 51.5 93.4 51.3 93.4 51C93.4 50.7 93.7 50.5 94 50.5C94.3 50.5 94.6 50.7 94.6 51C94.6 51.2 94.3 51.5 94 51.5Z" fill="white"/>
<path opacity="0.2" d="M101.9 51.5C101.6 51.5 101.3 51.3 101.3 51C101.3 50.7 101.6 50.5 101.9 50.5C102.2 50.5 102.5 50.7 102.5 51C102.5 51.2 102.2 51.5 101.9 51.5Z" fill="white"/>
<path d="M143.9 32C143.9 40.3 123.5 46.9 98.3 46.9C73 47 52.6 40.3 52.6 32" stroke="#F440C7" stroke-width="8" stroke-miterlimit="10"/>
<path d="M57.1 159.5L9.7 160.4L5.7 42.6L56.8 41.6L57.1 159.5Z" fill="#FFB531"/>
<path opacity="0.1" d="M22.7 42.4C36 52.1 43.1 72.5 39.2 94.4C35.6 114.8 23.5 130.8 9 136.6L9.8 160.5L57.2 159.6L57 41.7L22.7 42.4Z" fill="black"/>
<path d="M41 114.6L24.4 114.9C22.3 114.9 20.6 113.3 20.5 111.3L19.4 84.5C19.1 77.4 24.8 71.5 31.8 71.4C38.9 71.3 44.8 77 44.8 84.1L44.6 110.9C44.7 112.9 43 114.5 41 114.6Z" fill="#781AB7"/>
<path d="M28.6 109.4C27.1 109.4 25.9 108.3 25.8 106.8L24.9 84.2C24.8 81.6 26.1 79.2 28.4 77.7C29 77.3 29.6 77.1 30.3 76.9C32.9 76.2 35.5 76.9 37.4 78.8C38.8 80.2 39.6 82 39.6 84L39.4 106.5C39.4 108 38.2 109.2 36.7 109.2L28.6 109.4Z" fill="white"/>
<path d="M57.4 147.8L8.99999 148.8C6.99999 148.8 5.39999 150.5 5.39999 152.5L5.59999 160.8C5.59999 162.8 7.29999 164.4 9.29999 164.4L57.7 163.5C59.7 163.5 61.3 161.8 61.3 159.8L61.1 151.5C61.1 149.4 59.4 147.8 57.4 147.8Z" fill="#C220DC"/>
<path opacity="0.2" d="M57.4 147.8L39 148.2C39.1 154.7 30.3 160.2 19.3 160.4C14 160.5 9.1 159.4 5.5 157.4L5.6 160.8C5.6 162.8 7.3 164.4 9.3 164.4L57.7 163.5C59.7 163.5 61.3 161.8 61.3 159.8L61.1 151.5C61.1 149.4 59.4 147.8 57.4 147.8Z" fill="black"/>
<path d="M27.1 20.9C27.1 20.4 27.5 19.9 28.1 19.9H33.5C34 19.9 34.5 20.3 34.5 20.9V30C34.5 30.5 34.1 31 33.5 31H28.1C27.6 31 27.1 30.6 27.1 30V20.9Z" fill="#FFB531"/>
<path opacity="0.1" d="M33.2 26.9C30.5 27 28.2 24.8 28.1 22C28.1 21.3 28.2 20.6 28.5 20C27.7 20.2 27.1 20.9 27.2 21.8L27.3 29.2C27.3 30.2 28.1 31 29.1 31L32.7 30.9C33.7 30.9 34.5 30.1 34.5 29.1L34.4 26.8C34 26.8 33.6 26.9 33.2 26.9Z" fill="black"/>
<path opacity="0.2" d="M32.4 23.1C31.8 23.1 31.4 22.6 31.4 22.1C31.4 21.5 31.9 21.1 32.4 21.1C33 21.1 33.4 21.6 33.4 22.1C33.5 22.6 33 23.1 32.4 23.1Z" fill="white"/>
<path opacity="0.2" d="M32.5 24.5C32.2 24.5 32 24.3 32 24C32 23.7 32.3 23.5 32.5 23.5C32.8 23.5 33 23.8 33 24C33 24.3 32.8 24.5 32.5 24.5Z" fill="white"/>
<path opacity="0.2" d="M32.8 25.3C32.8 25.5 32.7 25.6 32.5 25.6C32.3 25.6 32.2 25.5 32.2 25.3C32.2 25.1 32.3 25 32.5 25C32.7 25.1 32.8 25.2 32.8 25.3Z" fill="white"/>
<path d="M20.9 32.3L17.3 32.6C16.3 32.7 15.4 32 15.4 31L14.8 23.6C14.7 22.6 15.5 21.7 16.4 21.7L20 21.4C21 21.3 21.9 22.1 21.9 23L22.5 30.4C22.6 31.3 21.9 32.2 20.9 32.3Z" fill="#FFB531"/>
<path opacity="0.1" d="M21.1 28.2999C18.4 28.4999 15.9 26.5 15.7 23.7C15.6 23 15.7 22.3 16 21.7C15.2 22 14.7 22.7 14.8 23.6L15.4 31C15.5 32 16.3 32.6999 17.3 32.5999L20.9 32.2999C21.9 32.1999 22.6 31.4 22.5 30.4L22.3 28C21.9 28.2 21.5 28.2999 21.1 28.2999Z" fill="black"/>
<path opacity="0.2" d="M20.1 24.6C19.5 24.6 19.1 24.1 19.1 23.6C19.1 23 19.6 22.6 20.1 22.6C20.7 22.6 21.1 23.1 21.1 23.6C21.1 24.1 20.7 24.6 20.1 24.6Z" fill="white"/>
<path opacity="0.2" d="M20.2 26C19.9 26 19.7 25.8 19.7 25.5C19.7 25.2 19.9 25 20.2 25C20.5 25 20.7 25.3 20.7 25.5C20.8 25.7 20.5 26 20.2 26Z" fill="white"/>
<path opacity="0.2" d="M20.6 26.8C20.6 27 20.5 27.1 20.4 27.1C20.2 27.1 20.1 27 20.1 26.8C20.1 26.7 20.2 26.5 20.3 26.5C20.5 26.5 20.6 26.7 20.6 26.8Z" fill="white"/>
<path d="M9.8 34.5L6.2 35C5.2 35.2 4.3 34.5 4.2 33.5L3.1 26.2C2.9 25.2 3.6 24.3 4.6 24.2L8.2 23.7C9.2 23.5 10.1 24.2 10.2 25.2L11.3 32.5C11.4 33.5 10.8 34.4 9.8 34.5Z" fill="#FFB531"/>
<path opacity="0.1" d="M9.7 30.5C7 30.9 4.5 29 4.1 26.3C4 25.6 4 25 4.2 24.3C3.4 24.6 3 25.4001 3.1 26.2001L4.2 33.5C4.3 34.5 5.2 35.2 6.2 35L9.8 34.5C10.8 34.3 11.5 33.4 11.3 32.5L11 30.2001C10.6 30.4001 10.2 30.5 9.7 30.5Z" fill="black"/>
<path opacity="0.2" d="M8.39999 26.9C7.79999 26.9 7.39999 26.4 7.39999 25.9C7.39999 25.3 7.89999 24.9 8.39999 24.9C8.99999 24.9 9.39999 25.4 9.39999 25.9C9.39999 26.4 8.99999 26.9 8.39999 26.9Z" fill="white"/>
<path opacity="0.2" d="M8.7 28.3C8.4 28.3 8.2 28 8.2 27.8C8.2 27.5 8.4 27.3 8.7 27.3C9 27.3 9.2 27.6 9.2 27.8C9.2 28 9 28.3 8.7 28.3Z" fill="white"/>
<path opacity="0.2" d="M9.10001 29.0999C9.10001 29.1999 9.00001 29.3999 8.90001 29.3999C8.80001 29.3999 8.60001 29.2999 8.60001 29.1999C8.60001 28.9999 8.70001 28.8999 8.80001 28.8999C9.00001 28.7999 9.10001 28.8999 9.10001 29.0999Z" fill="white"/>
<path d="M41.2 31.9L44.8 32.1C45.8 32.1 46.6 31.4 46.7 30.4L47 23C47 22 46.3 21.2 45.3 21.1L41.7 20.9C40.7 20.9 39.9 21.6 39.8 22.6L39.5 30C39.4 31 40.2 31.8 41.2 31.9Z" fill="#FFB531"/>
<path opacity="0.1" d="M40.8 27.9C43.6 28 45.9 25.9 46 23.1C46 22.4 45.9 21.7 45.7 21.1C46.5 21.3 47.1 22 47 22.9L46.7 30.3C46.7 31.3 45.8 32 44.8 32L41.2 31.8C40.2 31.8 39.5 30.9 39.5 29.9L39.6 27.6C40 27.8 40.4 27.9 40.8 27.9Z" fill="black"/>
<path opacity="0.2" d="M41.6 24.1C41 24.1 40.6 23.6 40.6 23.1C40.6 22.5 41.1 22.1 41.6 22.1C42.2 22.1 42.6 22.6 42.6 23.1C42.7 23.7 42.2 24.1 41.6 24.1Z" fill="white"/>
<path opacity="0.2" d="M41.6 25.5C41.3 25.5 41.1 25.3 41.1 25C41.1 24.7 41.3 24.5 41.6 24.5C41.9 24.5 42.1 24.7 42.1 25C42.1 25.3 41.9 25.5 41.6 25.5Z" fill="white"/>
<path opacity="0.2" d="M41.2 26.4C41.2 26.6 41.3 26.7 41.5 26.7C41.6 26.7 41.8 26.6 41.8 26.4C41.8 26.3 41.7 26.1 41.5 26.1C41.4 26.1 41.2 26.2 41.2 26.4Z" fill="white"/>
<path d="M52.4 33.7001L56 34.1C57 34.2001 57.9 33.5001 58 32.5001L58.8 25.1001C58.9 24.1001 58.2 23.2001 57.2 23.1001L53.6 22.7001C52.6 22.6001 51.7 23.3001 51.6 24.3001L50.8 31.7001C50.7 32.7001 51.4 33.6001 52.4 33.7001Z" fill="#FFB531"/>
<path opacity="0.1" d="M52.2 29.7001C54.9 30.0001 57.4 28 57.7 25.3C57.8 24.6 57.7 23.9 57.5 23.3C58.3 23.6 58.8 24.3001 58.7 25.2001L57.9 32.6C57.8 33.6 56.9 34.3001 55.9 34.2001L52.3 33.8C51.3 33.7 50.6 32.8 50.7 31.8L51 29.5C51.4 29.5 51.8 29.6001 52.2 29.7001Z" fill="black"/>
<path opacity="0.2" d="M53.4 26C52.8 26 52.4 25.6 52.4 25C52.4 24.4 52.9 24 53.4 24C54 24 54.4 24.5 54.4 25C54.4 25.5 54 26 53.4 26Z" fill="white"/>
<path opacity="0.2" d="M53.2 27.4C52.9 27.4 52.7 27.2 52.7 26.9C52.7 26.6 52.9 26.4 53.2 26.4C53.5 26.4 53.7 26.6 53.7 26.9C53.7 27.1 53.5 27.4 53.2 27.4Z" fill="white"/>
<path opacity="0.2" d="M52.8 28.2C52.8 28.3 52.9 28.5 53 28.5C53.1 28.5 53.3 28.4 53.3 28.3C53.3 28.1 53.2 28 53.1 28C52.9 27.9 52.8 28 52.8 28.2Z" fill="white"/>
<path d="M53.6 59.5C53.6 59 54 58.6 54.5 58.6H58.6C59.1 58.6 59.5 59 59.5 59.5V66.6C59.5 67.1 59.1 67.5 58.6 67.5H54.5C54 67.5 53.6 67.1 53.6 66.6V59.5Z" fill="#781AB7"/>
<path opacity="0.1" d="M53.6 60.4C53.6 59.4 54.4 58.7 55.4 58.7H55.7C55.5 59.4 55.3 60.1 55.3 60.9C55.3 63.5 56.8 65.5999 58.7 65.5999C59 65.5999 59.3 65.5 59.5 65.4V65.8C59.5 66.8 58.7 67.5999 57.7 67.5999H55.3C54.3 67.5999 53.6 66.8 53.6 65.8V60.4Z" fill="black"/>
<path opacity="0.2" d="M57.5 61.2C57.2 61.2 57 60.9 57 60.6C57 60.3 57.3 60 57.5 60C57.8 60 58.1 60.3 58.1 60.6C58.1 60.9 57.8 61.2 57.5 61.2Z" fill="white"/>
<path opacity="0.2" d="M57.5 63.9C57.1 63.9 56.8 63.3999 56.8 62.7999C56.8 62.1999 57.1 61.7 57.5 61.7C57.9 61.7 58.2 62.1999 58.2 62.7999C58.2 63.3999 57.9 63.9 57.5 63.9Z" fill="white"/>
<path d="M53.8 91C53.8 90.5 54.2 90.1 54.7 90.1H58.8C59.3 90.1 59.7 90.5 59.7 91V98.1C59.7 98.6 59.3 99 58.8 99H54.7C54.2 99 53.8 98.6 53.8 98.1V91Z" fill="#781AB7"/>
<path opacity="0.1" d="M53.8 91.8C53.8 90.8 54.6 90 55.6 90H55.9C55.6 90.7 55.5 91.4 55.5 92.2C55.5 94.8 57.1 96.9 58.9 96.9C59.2 96.9 59.5 96.8 59.7 96.7V97.1C59.7 98.1 58.9 98.9 57.9 98.9H55.5C54.5 98.9 53.7 98.1 53.7 97.2L53.8 91.8Z" fill="black"/>
<path opacity="0.2" d="M57.7 92.6C57.4 92.6 57.1 92.3 57.1 92.1C57.1 91.8 57.4 91.5 57.7 91.5C58 91.5 58.3 91.8 58.3 92.1C58.3 92.3 58 92.6 57.7 92.6Z" fill="white"/>
<path opacity="0.2" d="M57.7 95.3C57.3 95.3 57 94.8 57 94.2C57 93.6 57.3 93 57.7 93C58.1 93 58.4 93.5 58.4 94.2C58.4 94.8 58.1 95.3 57.7 95.3Z" fill="white"/>
<path d="M54 122.4C54 121.9 54.4 121.5 54.9 121.5H59C59.5 121.5 59.9 121.9 59.9 122.4V129.5C59.9 130 59.5 130.4 59 130.4H54.9C54.4 130.4 54 130 54 129.5V122.4Z" fill="#781AB7"/>
<path opacity="0.1" d="M54 123.2C54 122.2 54.8 121.4 55.8 121.4H56C55.8 122.1 55.6 122.8 55.6 123.6C55.6 126.2 57.1 128.3 59 128.3C59.3 128.3 59.6 128.2 59.8 128.1V128.5C59.8 129.5 59 130.2 58 130.2H55.6C54.6 130.2 53.9 129.4 53.9 128.4V123.2H54Z" fill="black"/>
<path opacity="0.2" d="M57.9 124C57.6 124 57.4 123.7 57.4 123.4C57.4 123.1 57.7 122.9 57.9 122.9C58.2 122.9 58.5 123.1 58.5 123.4C58.5 123.7 58.2 124 57.9 124Z" fill="white"/>
<path opacity="0.2" d="M57.9 126.7C57.5 126.7 57.2 126.2 57.2 125.6C57.2 125 57.5 124.5 57.9 124.5C58.3 124.5 58.6 125 58.6 125.6C58.6 126.2 58.3 126.7 57.9 126.7Z" fill="white"/>
<path d="M57.7 46.5L4.70001 47.5C2.90001 47.5 1.40001 46.1 1.30001 44.3L1.10001 35.8C1.10001 34.3 2.10001 32.9 3.60001 32.5C21.6 27.6 40 27.2 58.2 31.4C59.7 31.7 60.7 33 60.8 34.6C60.9 38.7 60.9 39 61 43.1C61 45 59.6 46.5 57.7 46.5Z" fill="#C220DC"/>
<path opacity="0.1" d="M60.8 34.6C60.8 33.1 59.7 31.8 58.2 31.4C57.4 31.2 56.5 31 55.7 30.9C55.8 31.3 55.9 31.7 55.9 32.2C56 37.7 45.2 42.4 31.8 42.7C18.4 43 7.40001 38.7 7.30001 33.2C7.30001 32.7 7.40001 32.1 7.60001 31.6C6.30001 31.9 5.00001 32.3 3.60001 32.6C2.10001 33 1.10001 34.3 1.10001 35.9L1.30001 44.4C1.30001 46.2 2.80001 47.7 4.70001 47.6L57.7 46.6C59.5 46.6 61 45.1 60.9 43.2C60.9 39 60.9 38.7 60.8 34.6Z" fill="black"/>
<path opacity="0.2" d="M31.2 35.8C27.8 35.8 25 34.7 25 33.3C25 31.9 27.8 30.8 31.2 30.8C34.6 30.8 37.4 31.9 37.4 33.3C37.3 34.7 34.6 35.8 31.2 35.8Z" fill="white"/>
<path opacity="0.2" d="M21.7 34.7001C20.6 34.7001 19.8 34.2 19.8 33.5C19.8 32.9 20.6 32.3 21.7 32.3C22.8 32.3 23.6 32.8 23.6 33.5C23.6 34.2 22.8 34.7001 21.7 34.7001Z" fill="white"/>
<path opacity="0.2" d="M17.3 34.2C16.8 34.2 16.3 33.9 16.3 33.6C16.3 33.3 16.7 33 17.3 33C17.8 33 18.2 33.3 18.2 33.6C18.3 34 17.9 34.2 17.3 34.2Z" fill="white"/>
<path opacity="0.2" d="M40.9 34.4C39.8 34.4 39 33.9 39 33.2C39 32.6 39.8 32 40.9 32C42 32 42.8 32.5 42.8 33.2C42.8 33.8 42 34.4 40.9 34.4Z" fill="white"/>
<path opacity="0.2" d="M45.3 33.7C44.8 33.7 44.4 33.4 44.4 33.1C44.4 32.8 44.8 32.5 45.3 32.5C45.8 32.5 46.3 32.8 46.3 33.1C46.2 33.4 45.8 33.7 45.3 33.7Z" fill="white"/>
<path opacity="0.2" d="M14.5 154.6C13.8 154.6 13.2 154 13.2 153.3C13.2 152.6 13.8 152 14.5 152C15.2 152 15.8 152.6 15.8 153.3C15.8 154.1 15.2 154.6 14.5 154.6Z" fill="white"/>
<path opacity="0.2" d="M10.5 154.3C10 154.3 9.60001 153.9 9.60001 153.4C9.60001 152.9 10 152.5 10.5 152.5C11 152.5 11.4 152.9 11.4 153.4C11.4 153.9 11 154.3 10.5 154.3Z" fill="white"/>
<path opacity="0.2" d="M23.9 155.7C20.4 155.7 17.5 154.6 17.5 153.1C17.5 151.7 20.4 150.5 23.9 150.5C27.5 150.5 30.3 151.6 30.3 153.1C30.3 154.6 27.4 155.7 23.9 155.7Z" fill="white"/>
<path opacity="0.2" d="M16.6 71C15.9 71 15.3 70.4 15.3 69.7C15.3 69 15.9 68.4 16.6 68.4C17.3 68.4 17.9 69 17.9 69.7C17.9 70.4 17.3 71 16.6 71Z" fill="white"/>
<path opacity="0.2" d="M16.7 74.6C16.2 74.6 15.8 74.2 15.8 73.7C15.8 73.2 16.2 72.8 16.7 72.8C17.2 72.8 17.6 73.2 17.6 73.7C17.6 74.2 17.2 74.6 16.7 74.6Z" fill="white"/>
<path opacity="0.2" d="M16.4 66.7C15 66.7 13.8 63.8 13.8 60.3C13.8 56.8 15 53.9 16.4 53.9C17.8 53.9 19 56.8 19 60.3C19 63.8 17.9 66.7 16.4 66.7Z" fill="white"/>
<path d="M7.9 68.5L5.5 68.6C4.5 68.6 3.7 67.9 3.7 66.9L3.5 61.5C3.5 60.5 4.2 59.7 5.2 59.7L7.6 59.6C8.6 59.6 9.4 60.3 9.4 61.3L9.6 66.7C9.6 67.6 8.8 68.5 7.9 68.5Z" fill="#781AB7"/>
<path opacity="0.1" d="M9.3 61.3C9.3 60.3 8.4 59.6 7.5 59.6H7.3C7.6 60.3 7.7 61 7.8 61.8C7.9 64.4 6.4 66.6 4.6 66.7C4.3 66.7 4 66.7 3.8 66.6V67C3.8 68 4.6 68.7 5.6 68.7L8 68.6C9 68.6 9.7 67.8 9.7 66.8L9.3 61.3Z" fill="black"/>
<path opacity="0.2" d="M5.4 62.2C5.1 62.2 4.8 61.9 4.8 61.6C4.8 61.3 5.1 61.1 5.4 61.1C5.7 61.1 6 61.4 6 61.6C6 61.9 5.7 62.2 5.4 62.2Z" fill="white"/>
<path opacity="0.2" d="M5.5 64.9C5.1 64.9 4.8 64.3999 4.8 63.7999C4.8 63.1999 5.1 62.7 5.5 62.7C5.9 62.7 6.2 63.1999 6.2 63.7999C6.2 64.3999 5.9 64.9 5.5 64.9Z" fill="white"/>
<path d="M8.9 99.9L6.5 100C5.5 100 4.7 99.3 4.7 98.3L4.5 92.9C4.5 91.9 5.2 91.1 6.2 91.1L8.5 91C9.5 90.9 10.3 91.7 10.3 92.7L10.5 98.1C10.6 99 9.9 99.9 8.9 99.9Z" fill="#781AB7"/>
<path opacity="0.1" d="M10.4 92.7C10.4 91.7 9.5 91 8.6 91H8.3C8.6 91.7 8.7 92.4 8.8 93.2C8.9 95.8 7.4 98 5.6 98.1C5.3 98.1 5 98.1 4.8 98V98.4C4.8 99.4 5.6 100.1 6.6 100.1L9 100C10 100 10.7 99.2 10.7 98.2L10.4 92.7Z" fill="black"/>
<path opacity="0.2" d="M6.4 93.6C6.1 93.6 5.8 93.3 5.8 93C5.8 92.7 6.1 92.5 6.4 92.5C6.8 92.5 7 92.7 7 93C7 93.3 6.8 93.6 6.4 93.6Z" fill="white"/>
<path opacity="0.2" d="M6.5 96.3C6.1 96.3 5.8 95.8 5.8 95.2C5.8 94.6 6.1 94.1 6.5 94.1C6.9 94.1 7.2 94.6 7.2 95.2C7.2 95.8 6.9 96.3 6.5 96.3Z" fill="white"/>
<path d="M9.9 131.3L7.5 131.4C6.5 131.4 5.7 130.7 5.7 129.7L5.5 124.3C5.5 123.3 6.2 122.5 7.2 122.5L9.6 122.4C10.6 122.4 11.4 123.1 11.4 124.1L11.6 129.5C11.6 130.4 10.9 131.3 9.9 131.3Z" fill="#781AB7"/>
<path opacity="0.1" d="M11.4 124.1C11.4 123.1 10.5 122.4 9.6 122.4H9.3C9.6 123.1 9.7 123.8 9.8 124.6C9.9 127.2 8.4 129.4 6.6 129.5C6.3 129.5 6 129.5 5.8 129.4V129.8C5.8 130.8 6.6 131.5 7.6 131.5L10 131.4C11 131.4 11.7 130.6 11.7 129.6L11.4 124.1Z" fill="black"/>
<path opacity="0.2" d="M7.49999 125C7.19999 125 6.89999 124.7 6.89999 124.4C6.89999 124.1 7.19999 123.8 7.49999 123.8C7.79999 123.8 7.99999 124.1 7.99999 124.4C7.99999 124.7 7.79999 125 7.49999 125Z" fill="white"/>
<path opacity="0.2" d="M7.5 127.7C7.1 127.7 6.8 127.2 6.8 126.6C6.8 126 7.1 125.5 7.5 125.5C7.9 125.5 8.2 126 8.2 126.6C8.2 127.2 7.9 127.7 7.5 127.7Z" fill="white"/>
<path opacity="0.2" d="M35.5 75.3C35.1 75.3 34.7 75 34.7 74.5C34.7 74.1 35 73.7 35.5 73.7C36 73.7 36.3 74 36.3 74.5C36.3 75 36 75.3 35.5 75.3Z" fill="white"/>
<path opacity="0.2" d="M39.4 75.8C40.2 76.6 40.5 77.5 40.1 77.9C39.7 78.3 38.8 78 38 77.2C37.2 76.4 36.9 75.5 37.3 75.1C37.6 74.8 38.6 75.1 39.4 75.8Z" fill="white"/>
<path d="M135.8 159.5L183.2 160.4L187.1 42.6L136 41.6L135.8 159.5Z" fill="#FFB531"/>
<path opacity="0.1" d="M170.3 42.4C157 52.1 149.9 72.5 153.8 94.4C157.4 114.8 169.6 130.8 184 136.6L183.2 160.5L135.8 159.6L136 41.7L170.3 42.4Z" fill="black"/>
<path d="M152 114.6L168.6 114.9C170.6 114.9 172.4 113.3 172.5 111.3L173.6 84.5C173.8 77.4 168.2 71.5 161.2 71.4C154.1 71.3 148.2 77 148.2 84.1L148.4 110.9C148.3 112.9 149.9 114.5 152 114.6Z" fill="#781AB7"/>
<path d="M164.4 109.4C165.9 109.4 167.1 108.3 167.2 106.8L168.1 84.2C168.2 81.6 166.9 79.2 164.6 77.7C164 77.3 163.4 77.1 162.7 76.9C160.1 76.2 157.5 76.9 155.7 78.8C154.3 80.2 153.5 82 153.5 84L153.7 106.5C153.7 108 154.9 109.2 156.4 109.2L164.4 109.4Z" fill="white"/>
<path d="M135.5 147.8L183.9 148.8C185.9 148.8 187.5 150.5 187.5 152.5L187.3 160.8C187.3 162.8 185.6 164.4 183.6 164.4L135.2 163.5C133.2 163.5 131.6 161.8 131.6 159.8L131.8 151.5C131.8 149.4 133.5 147.8 135.5 147.8Z" fill="#C220DC"/>
<path opacity="0.2" d="M135.5 147.8L153.9 148.2C153.8 154.7 162.6 160.2 173.5 160.4C178.8 160.5 183.7 159.4 187.4 157.4L187.3 160.8C187.3 162.8 185.6 164.4 183.6 164.4L135.2 163.5C133.2 163.5 131.6 161.8 131.6 159.8L131.8 151.5C131.8 149.4 133.5 147.8 135.5 147.8Z" fill="black"/>
<path d="M160.2 30.8L163.8 30.9C164.8 30.9 165.6 30.1 165.6 29.1L165.7 21.7001C165.7 20.7001 164.9 19.9 163.9 19.9L160.3 19.8C159.3 19.8 158.5 20.6 158.5 21.6L158.4 29C158.5 30 159.3 30.8 160.2 30.8Z" fill="#FFB531"/>
<path opacity="0.1" d="M159.8 26.9C162.6 27 164.8 24.8 164.9 22C164.9 21.3 164.8 20.6 164.5 20C165.3 20.2 165.9 20.9 165.8 21.8L165.7 29.2C165.7 30.2 164.9 31 163.9 31L160.3 30.9C159.3 30.9 158.5 30.1 158.5 29.1V26.8C158.9 26.8 159.3 26.9 159.8 26.9Z" fill="black"/>
<path opacity="0.2" d="M160.5 23.1C159.9 23.1 159.5 22.6 159.5 22.1C159.5 21.5 160 21.1 160.5 21.1C161.1 21.1 161.5 21.6 161.5 22.1C161.5 22.6 161.1 23.1 160.5 23.1Z" fill="white"/>
<path opacity="0.2" d="M160.5 24.5C160.2 24.5 160 24.3 160 24C160 23.7 160.2 23.5 160.5 23.5C160.8 23.5 161 23.8 161 24C161 24.3 160.8 24.5 160.5 24.5Z" fill="white"/>
<path opacity="0.2" d="M160.2 25.3C160.2 25.5 160.3 25.6 160.5 25.6C160.6 25.6 160.8 25.5 160.8 25.3C160.8 25.1 160.7 25 160.5 25C160.3 25.1 160.2 25.2 160.2 25.3Z" fill="white"/>
<path d="M172.1 32.3L175.7 32.6C176.7 32.7 177.6 32 177.6 31L178.2 23.6C178.3 22.6 177.6 21.7 176.6 21.7L173 21.4C172 21.3 171.1 22.1 171.1 23L170.5 30.4C170.3 31.3 171.1 32.2 172.1 32.3Z" fill="#FFB531"/>
<path opacity="0.1" d="M171.8 28.2999C174.6 28.4999 177 26.5 177.2 23.7C177.3 23 177.2 22.3 177 21.7C177.8 22 178.3 22.7 178.2 23.6L177.6 31C177.5 32 176.7 32.6999 175.7 32.5999L172.1 32.2999C171.1 32.1999 170.4 31.4 170.5 30.4L170.7 28.1C171 28.2 171.4 28.2999 171.8 28.2999Z" fill="black"/>
<path opacity="0.2" d="M172.9 24.6C172.3 24.6 171.9 24.1 171.9 23.6C171.9 23 172.4 22.6 172.9 22.6C173.5 22.6 173.9 23.1 173.9 23.6C173.9 24.1 173.4 24.6 172.9 24.6Z" fill="white"/>
<path opacity="0.2" d="M172.7 26C172.4 26 172.2 25.8 172.2 25.5C172.2 25.2 172.5 25 172.7 25C173 25 173.2 25.3 173.2 25.5C173.3 25.7 173 26 172.7 26Z" fill="white"/>
<path opacity="0.2" d="M172.3 26.8C172.3 27 172.4 27.1 172.5 27.1C172.6 27.1 172.8 27 172.8 26.8C172.8 26.7 172.7 26.5 172.5 26.5C172.5 26.5 172.3 26.7 172.3 26.8Z" fill="white"/>
<path d="M183.2 34.5L186.8 35C187.8 35.2 188.7 34.5 188.8 33.5L189.9 26.2C190 25.2 189.4 24.3 188.4 24.2L184.8 23.7C183.8 23.5 182.9 24.2 182.8 25.2L181.7 32.5C181.5 33.5 182.2 34.4 183.2 34.5Z" fill="#FFB531"/>
<path opacity="0.1" d="M183.2 30.5C185.9 30.9 188.5 29 188.9 26.3C189 25.6 188.9 24.9 188.8 24.3C189.6 24.6 190 25.4001 189.9 26.2001L188.8 33.5C188.7 34.5 187.8 35.2 186.8 35L183.2 34.5C182.2 34.3 181.6 33.4 181.7 32.5L182 30.2001C182.4 30.4001 182.8 30.5 183.2 30.5Z" fill="black"/>
<path opacity="0.2" d="M184.5 26.9C183.9 26.9 183.5 26.4 183.5 25.9C183.5 25.3 184 24.9 184.5 24.9C185.1 24.9 185.5 25.4 185.5 25.9C185.6 26.4 185.1 26.9 184.5 26.9Z" fill="white"/>
<path opacity="0.2" d="M184.3 28.3C184 28.3 183.8 28 183.8 27.8C183.8 27.6 184.1 27.3 184.3 27.3C184.6 27.3 184.8 27.6 184.8 27.8C184.8 28 184.6 28.3 184.3 28.3Z" fill="white"/>
<path opacity="0.2" d="M183.8 29.0999C183.8 29.1999 183.9 29.3999 184 29.3999C184.1 29.3999 184.3 29.2999 184.3 29.1999C184.3 28.9999 184.2 28.8999 184.1 28.8999C184 28.7999 183.8 28.8999 183.8 29.0999Z" fill="white"/>
<path d="M151.8 31.9L148.2 32.1C147.2 32.1 146.4 31.4 146.3 30.4L146 23C146 22 146.7 21.2 147.7 21.1L151.3 20.9C152.3 20.9 153.1 21.6 153.2 22.6L153.5 30C153.5 31 152.8 31.8 151.8 31.9Z" fill="#FFB531"/>
<path opacity="0.1" d="M152.2 27.9C149.4 28 147.1 25.9 147 23.1C147 22.4 147.1 21.7 147.3 21.1C146.5 21.3 146 22 146 22.9L146.3 30.3C146.4 31.3 147.2 32 148.2 32L151.8 31.8C152.8 31.8 153.6 30.9 153.5 29.9L153.4 27.6C153 27.8 152.6 27.9 152.2 27.9Z" fill="black"/>
<path opacity="0.2" d="M151.3 24.1C150.7 24.1 150.3 23.6 150.3 23.1C150.3 22.5 150.8 22.1 151.3 22.1C151.9 22.1 152.3 22.6 152.3 23.1C152.3 23.7 151.9 24.1 151.3 24.1Z" fill="white"/>
<path opacity="0.2" d="M151.4 25.5C151.1 25.5 150.9 25.3 150.9 25C150.9 24.7 151.2 24.5 151.4 24.5C151.7 24.5 151.9 24.7 151.9 25C151.9 25.3 151.7 25.5 151.4 25.5Z" fill="white"/>
<path opacity="0.2" d="M151.7 26.4C151.7 26.6 151.6 26.7 151.4 26.7C151.2 26.7 151.1 26.6 151.1 26.4C151.1 26.3 151.2 26.1 151.4 26.1C151.6 26.1 151.7 26.2 151.7 26.4Z" fill="white"/>
<path d="M140.6 33.7001L137 34.1C136 34.2001 135.1 33.5001 135 32.5001L134.2 25.1001C134.1 24.1001 134.8 23.2001 135.8 23.1001L139.4 22.7001C140.4 22.6001 141.3 23.3001 141.4 24.3001L142.2 31.7001C142.3 32.7001 141.6 33.6001 140.6 33.7001Z" fill="#FFB531"/>
<path opacity="0.1" d="M140.7 29.7001C138 30.0001 135.5 28 135.2 25.3C135.1 24.6 135.2 23.9 135.4 23.3C134.6 23.6 134.1 24.3001 134.2 25.2001L135 32.6C135.1 33.6 136 34.3001 137 34.2001L140.6 33.8C141.6 33.7 142.3 32.8 142.2 31.8L141.9 29.5C141.5 29.5 141.1 29.6001 140.7 29.7001Z" fill="black"/>
<path opacity="0.2" d="M139.6 26C139 26 138.6 25.6 138.6 25C138.6 24.4 139.1 24 139.6 24C140.2 24 140.6 24.5 140.6 25C140.6 25.5 140.1 26 139.6 26Z" fill="white"/>
<path opacity="0.2" d="M139.8 27.4C139.5 27.4 139.3 27.2 139.3 26.9C139.3 26.6 139.6 26.4 139.8 26.4C140.1 26.4 140.3 26.6 140.3 26.9C140.3 27.1 140 27.4 139.8 27.4Z" fill="white"/>
<path opacity="0.2" d="M140.2 28.2C140.2 28.3 140.1 28.5 140 28.5C139.9 28.5 139.7 28.4 139.7 28.3C139.7 28.1 139.8 28 139.9 28C140 27.9 140.1 28 140.2 28.2Z" fill="white"/>
<path d="M133.5 59.5999C133.5 59.0999 133.9 58.7 134.4 58.7H138.5C139 58.7 139.4 59.0999 139.4 59.5999V66.6999C139.4 67.1999 139 67.5999 138.5 67.5999H134.4C133.9 67.5999 133.5 67.1999 133.5 66.6999V59.5999Z" fill="#781AB7"/>
<path opacity="0.1" d="M139.4 60.4C139.4 59.4 138.6 58.7 137.6 58.7H137.3C137.5 59.4 137.7 60.1 137.7 60.9C137.7 63.5 136.2 65.5999 134.3 65.5999C134 65.5999 133.7 65.5 133.5 65.4V65.8C133.5 66.8 134.3 67.5999 135.3 67.5999H137.7C138.7 67.5999 139.5 66.8 139.5 65.8V60.4H139.4Z" fill="black"/>
<path opacity="0.2" d="M135.5 61.2C135.2 61.2 135 60.9 135 60.6C135 60.3 135.2 60 135.5 60C135.8 60 136.1 60.3 136.1 60.6C136.1 60.9 135.8 61.2 135.5 61.2Z" fill="white"/>
<path opacity="0.2" d="M135.4 63.9C135 63.9 134.7 63.3999 134.7 62.7999C134.7 62.1999 135 61.7 135.4 61.7C135.8 61.7 136.1 62.1999 136.1 62.7999C136.1 63.3999 135.8 63.9 135.4 63.9Z" fill="white"/>
<path d="M133.3 91C133.3 90.5 133.7 90.1 134.2 90.1H138.3C138.8 90.1 139.2 90.5 139.2 91V98.1C139.2 98.6 138.8 99 138.3 99H134.2C133.7 99 133.3 98.6 133.3 98.1V91Z" fill="#781AB7"/>
<path opacity="0.1" d="M139.2 91.8C139.2 90.8 138.4 90 137.4 90H137.1C137.4 90.7 137.5 91.4 137.5 92.2C137.5 94.8 136 96.9 134.1 96.9C133.8 96.9 133.5 96.8 133.3 96.7V97.1C133.3 98.1 134.1 98.9 135 98.9H137.4C138.4 98.9 139.2 98.1 139.1 97.2V91.8H139.2Z" fill="black"/>
<path opacity="0.2" d="M135.3 92.6C135 92.6 134.7 92.3 134.7 92.1C134.7 91.8 135 91.5 135.3 91.5C135.6 91.5 135.8 91.8 135.8 92.1C135.8 92.3 135.6 92.6 135.3 92.6Z" fill="white"/>
<path opacity="0.2" d="M135.2 95.3C134.8 95.3 134.5 94.8 134.5 94.2C134.5 93.6 134.8 93 135.2 93C135.6 93 135.9 93.5 135.9 94.2C135.9 94.8 135.6 95.3 135.2 95.3Z" fill="white"/>
<path d="M133.1 122.4C133.1 121.9 133.5 121.5 134 121.5H138.1C138.6 121.5 139 121.9 139 122.4V129.5C139 130 138.6 130.4 138.1 130.4H134C133.5 130.4 133.1 130 133.1 129.5V122.4Z" fill="#781AB7"/>
<path opacity="0.1" d="M139 123.2C139 122.2 138.2 121.4 137.2 121.4H136.9C137.2 122.1 137.3 122.8 137.3 123.6C137.3 126.2 135.8 128.3 133.9 128.3C133.6 128.3 133.3 128.2 133.1 128.1V128.5C133.1 129.5 133.9 130.2 134.9 130.2H137.3C138.3 130.2 139.1 129.4 139.1 128.4V123.2H139Z" fill="black"/>
<path opacity="0.2" d="M135 124C134.7 124 134.5 123.7 134.5 123.4C134.5 123.1 134.7 122.9 135 122.9C135.3 122.9 135.6 123.1 135.6 123.4C135.6 123.7 135.3 124 135 124Z" fill="white"/>
<path opacity="0.2" d="M135 126.7C134.6 126.7 134.3 126.2 134.3 125.6C134.3 125 134.6 124.5 135 124.5C135.4 124.5 135.7 125 135.7 125.6C135.7 126.2 135.4 126.7 135 126.7Z" fill="white"/>
<path d="M135.2 46.5L188.2 47.5C190 47.5 191.5 46.1 191.6 44.3L191.8 35.8C191.8 34.3 190.8 32.9 189.3 32.5C171.3 27.6 152.9 27.2 134.7 31.4C133.2 31.7 132.2 33 132.1 34.6C132 38.7 132 39 131.9 43.1C131.9 45 133.4 46.5 135.2 46.5Z" fill="#C220DC"/>
<path opacity="0.1" d="M132.1 34.6C132.1 33.1 133.2 31.8 134.7 31.4C135.5 31.2 136.4 31 137.2 30.9C137.1 31.3 137 31.7 137 32.2C136.9 37.7 147.7 42.4 161.1 42.7C174.5 43 185.5 38.7 185.6 33.2C185.6 32.7 185.5 32.1 185.3 31.6C186.6 31.9 187.9 32.3 189.3 32.6C190.8 33 191.8 34.3 191.8 35.9L191.6 44.4C191.6 46.2 190.1 47.7 188.2 47.6L135.2 46.6C133.4 46.6 131.9 45.1 132 43.2C132.1 39 132.1 38.7 132.1 34.6Z" fill="black"/>
<path opacity="0.2" d="M161.8 35.8C158.4 35.8 155.7 34.7 155.7 33.3C155.7 31.9 158.4 30.8 161.8 30.8C165.2 30.8 168 31.9 168 33.3C167.9 34.7 165.2 35.8 161.8 35.8Z" fill="white"/>
<path opacity="0.2" d="M171.2 34.7001C170.1 34.7001 169.3 34.2 169.3 33.5C169.3 32.9 170.1 32.3 171.2 32.3C172.3 32.3 173.1 32.8 173.1 33.5C173.2 34.2 172.3 34.7001 171.2 34.7001Z" fill="white"/>
<path opacity="0.2" d="M175.6 34.2C175.1 34.2 174.6 33.9 174.6 33.6C174.6 33.3 175 33 175.6 33C176.1 33 176.6 33.3 176.6 33.6C176.6 34 176.2 34.2 175.6 34.2Z" fill="white"/>
<path opacity="0.2" d="M152.1 34.4C151 34.4 150.2 33.9 150.2 33.2C150.2 32.6 151 32 152.1 32C153.2 32 154 32.5 154 33.2C154 33.8 153.1 34.4 152.1 34.4Z" fill="white"/>
<path opacity="0.2" d="M147.7 33.7C147.2 33.7 146.8 33.4 146.8 33.1C146.8 32.8 147.2 32.5 147.7 32.5C148.2 32.5 148.7 32.8 148.7 33.1C148.6 33.4 148.2 33.7 147.7 33.7Z" fill="white"/>
<path opacity="0.2" d="M178.4 154.6C177.7 154.6 177.1 154 177.1 153.3C177.1 152.6 177.7 152 178.4 152C179.1 152 179.7 152.6 179.7 153.3C179.8 154.1 179.2 154.6 178.4 154.6Z" fill="white"/>
<path opacity="0.2" d="M182.5 154.3C182 154.3 181.6 153.9 181.6 153.4C181.6 152.9 182 152.5 182.5 152.5C183 152.5 183.4 152.9 183.4 153.4C183.4 153.9 183 154.3 182.5 154.3Z" fill="white"/>
<path opacity="0.2" d="M169.1 155.7C165.6 155.7 162.7 154.6 162.7 153.1C162.7 151.7 165.6 150.5 169.1 150.5C172.7 150.5 175.5 151.6 175.5 153.1C175.5 154.6 172.6 155.7 169.1 155.7Z" fill="white"/>
<path opacity="0.2" d="M176.3 71C175.6 71 175 70.4 175 69.7C175 69 175.6 68.4 176.3 68.4C177 68.4 177.6 69 177.6 69.7C177.7 70.4 177.1 71 176.3 71Z" fill="white"/>
<path opacity="0.2" d="M176.3 74.6C175.8 74.6 175.4 74.2 175.4 73.7C175.4 73.2 175.8 72.8 176.3 72.8C176.8 72.8 177.2 73.2 177.2 73.7C177.2 74.2 176.8 74.6 176.3 74.6Z" fill="white"/>
<path opacity="0.2" d="M176.5 66.7C175.1 66.7 173.9 63.8 173.9 60.3C173.9 56.8 175.1 53.9 176.5 53.9C177.9 53.9 179.1 56.8 179.1 60.3C179.1 63.8 178 66.7 176.5 66.7Z" fill="white"/>
<path d="M185.1 68.5L187.5 68.6C188.5 68.6 189.3 67.9 189.3 66.9L189.5 61.5C189.5 60.5 188.8 59.7 187.8 59.7L185.4 59.6C184.4 59.6 183.6 60.3 183.6 61.3L183.4 66.7C183.4 67.6 184.1 68.5 185.1 68.5Z" fill="#781AB7"/>
<path opacity="0.1" d="M183.6 61.3C183.6 60.3 184.4 59.6 185.4 59.6H185.7C185.4 60.3 185.3 61 185.2 61.8C185.1 64.4 186.6 66.6 188.4 66.7C188.7 66.7 189 66.7 189.2 66.6V67C189.2 68 188.4 68.7 187.4 68.7L185 68.6C184 68.6 183.3 67.8 183.3 66.8L183.6 61.3Z" fill="black"/>
<path opacity="0.2" d="M187.5 62.2C187.2 62.2 186.9 61.9 186.9 61.6C186.9 61.3 187.2 61.1 187.5 61.1C187.8 61.1 188 61.4 188 61.6C188.1 61.9 187.8 62.2 187.5 62.2Z" fill="white"/>
<path opacity="0.2" d="M187.5 64.9C187.1 64.9 186.8 64.3999 186.8 63.7999C186.8 63.1999 187.1 62.7 187.5 62.7C187.9 62.7 188.2 63.1999 188.2 63.7999C188.2 64.3999 187.8 64.9 187.5 64.9Z" fill="white"/>
<path d="M184 99.9L186.4 100C187.4 100 188.2 99.3 188.2 98.3L188.4 92.9C188.4 91.9 187.7 91.1 186.7 91.1L184.3 91C183.3 90.9 182.5 91.7 182.5 92.7L182.3 98.1C182.3 99 183.1 99.9 184 99.9Z" fill="#781AB7"/>
<path opacity="0.1" d="M182.6 92.7C182.6 91.7 183.5 91 184.4 91H184.7C184.4 91.7 184.3 92.4 184.2 93.2C184.1 95.8 185.6 98 187.4 98.1C187.7 98.1 188 98.1 188.2 98V98.4C188.2 99.4 187.4 100.1 186.4 100.1L184 100C183 100 182.3 99.2 182.3 98.2L182.6 92.7Z" fill="black"/>
<path opacity="0.2" d="M186.5 93.6C186.2 93.6 185.9 93.3 185.9 93C185.9 92.7 186.2 92.5 186.5 92.5C186.8 92.5 187 92.7 187 93C187 93.3 186.8 93.6 186.5 93.6Z" fill="white"/>
<path opacity="0.2" d="M186.4 96.3C186 96.3 185.7 95.8 185.7 95.2C185.7 94.6 186 94.1 186.4 94.1C186.8 94.1 187.1 94.6 187.1 95.2C187.1 95.8 186.8 96.3 186.4 96.3Z" fill="white"/>
<path d="M183 131.3L185.4 131.4C186.4 131.4 187.2 130.7 187.2 129.7L187.4 124.3C187.4 123.3 186.7 122.5 185.7 122.5L183.3 122.4C182.3 122.4 181.5 123.1 181.5 124.1L181.3 129.5C181.3 130.4 182.1 131.3 183 131.3Z" fill="#781AB7"/>
<path opacity="0.1" d="M181.6 124.1C181.6 123.1 182.4 122.4 183.4 122.4H183.7C183.4 123.1 183.3 123.8 183.2 124.6C183.1 127.2 184.6 129.4 186.4 129.5C186.7 129.5 187 129.5 187.2 129.4V129.8C187.2 130.8 186.4 131.5 185.4 131.5L183 131.4C182 131.4 181.3 130.6 181.3 129.6L181.6 124.1Z" fill="black"/>
<path opacity="0.2" d="M185.5 125C185.2 125 184.9 124.7 184.9 124.4C184.9 124.1 185.2 123.8 185.5 123.8C185.8 123.8 186 124.1 186 124.4C186 124.7 185.8 125 185.5 125Z" fill="white"/>
<path opacity="0.2" d="M185.4 127.7C185 127.7 184.7 127.2 184.7 126.6C184.7 126 185 125.5 185.4 125.5C185.8 125.5 186.1 126 186.1 126.6C186.1 127.2 185.8 127.7 185.4 127.7Z" fill="white"/>
<path opacity="0.2" d="M157.4 75.3C157 75.3 156.6 75 156.6 74.5C156.6 74.1 156.9 73.7 157.4 73.7C157.8 73.7 158.2 74 158.2 74.5C158.2 75 157.8 75.3 157.4 75.3Z" fill="white"/>
<path opacity="0.2" d="M153.6 75.8C152.8 76.6 152.5 77.5 152.9 77.9C153.3 78.3 154.3 78 155 77.2C155.8 76.4 156.1 75.5 155.7 75.1C155.3 74.8 154.4 75.1 153.6 75.8Z" fill="white"/>
<path d="M79 93.9L73.8 94.3C72.4 94.4 71.1 93.3 71 91.9L70.2 81.1C70.1 79.7 71.2 78.4 72.6 78.3L77.9 77.9C79.3 77.8 80.6 78.9 80.7 80.3L81.5 91.1C81.5 92.5 80.5 93.8 79 93.9Z" fill="#FFB531"/>
<path opacity="0.1" d="M79.4 88.1C75.4 88.4 71.9 85.4 71.6 81.4C71.5 80.4 71.7 79.4 72 78.5C70.9 78.8 70.1 79.9 70.2 81.2L71 91.9C71.1 93.3 72.4 94.4 73.8 94.3L79 93.9C80.4 93.8 81.5 92.5 81.4 91.1L81.1 87.7C80.6 87.9 80 88 79.4 88.1Z" fill="black"/>
<path opacity="0.2" d="M77.9 82.6C77.1 82.6 76.4 81.9 76.4 81.1C76.4 80.3 77.1 79.6 77.9 79.6C78.7 79.6 79.4 80.3 79.4 81.1C79.4 81.9 78.7 82.6 77.9 82.6Z" fill="white"/>
<path opacity="0.2" d="M78.1 84.6C77.7 84.6 77.3 84.3 77.3 83.8C77.3 83.4 77.6 83 78.1 83C78.5 83 78.9 83.3 78.9 83.8C78.9 84.3 78.6 84.6 78.1 84.6Z" fill="white"/>
<path opacity="0.2" d="M78.3 86.3C78.1 86.3 77.9 86.1 77.9 85.9C77.9 85.7 78.1 85.5 78.3 85.5C78.5 85.5 78.7 85.7 78.7 85.9C78.7 86.1 78.5 86.3 78.3 86.3Z" fill="white"/>
<path d="M93 78.5C93 77.8 93.6 77.1 94.4 77.1H102.2C103 77.1 103.6 77.7 103.6 78.5V91.8C103.6 92.6 103 93.2 102.2 93.2H94.4C93.7 93.2 93 92.6 93 91.8V78.5Z" fill="#FFB531"/>
<path opacity="0.1" d="M101.7 87.4C97.7 87.4 94.4 84.1 94.4 80.1C94.4 79.1 94.6 78.1 95 77.2C93.9 77.5 93 78.5 93 79.7V90.5C93 91.9 94.2 93.1 95.6 93.1H100.9C102.3 93.1 103.5 91.9 103.5 90.5V87.1C102.9 87.3 102.3 87.4 101.7 87.4Z" fill="black"/>
<path opacity="0.2" d="M100.7 81.8C99.9 81.8 99.2 81.1 99.2 80.3C99.2 79.5 99.9 78.8 100.7 78.8C101.5 78.8 102.2 79.5 102.2 80.3C102.2 81.1 101.6 81.8 100.7 81.8Z" fill="white"/>
<path opacity="0.2" d="M100.7 83.8C100.3 83.8 99.9 83.4 99.9 83C99.9 82.6 100.2 82.2 100.7 82.2C101.1 82.2 101.5 82.6 101.5 83C101.5 83.5 101.2 83.8 100.7 83.8Z" fill="white"/>
<path opacity="0.2" d="M100.7 85.5C100.5 85.5 100.3 85.3 100.3 85.1C100.3 84.9 100.5 84.7 100.7 84.7C100.9 84.7 101.1 84.9 101.1 85.1C101.1 85.3 100.9 85.5 100.7 85.5Z" fill="white"/>
<path d="M121.8 94.5999L116.5 94.0999C115.1 93.8999 114 92.6999 114.2 91.1999L115.3 80.4999C115.5 79.0999 116.7 77.9999 118.2 78.1999L123.5 78.6999C124.9 78.8999 126 80.0999 125.8 81.5999L124.7 92.3C124.5 93.7 123.3 94.6999 121.8 94.5999Z" fill="#FFB531"/>
<path opacity="0.1" d="M123.2 88.9C119.2 88.5 116.3 84.9 116.7 80.9C116.8 79.9 117.1 78.9 117.6 78.1C116.4 78.3 115.5 79.2 115.3 80.4L114.2 91.1C114.1 92.5 115.1 93.8 116.5 94L121.8 94.5C123.2 94.6 124.5 93.6 124.7 92.2L125 88.8C124.4 89 123.8 89 123.2 88.9Z" fill="black"/>
<path opacity="0.2" d="M123 83.3C122.2 83.3 121.5 82.6 121.5 81.8C121.5 81 122.2 80.3 123 80.3C123.8 80.3 124.5 81 124.5 81.8C124.5 82.7 123.8 83.3 123 83.3Z" fill="white"/>
<path opacity="0.2" d="M122.7 85.3C122.3 85.3 121.9 85 121.9 84.5C121.9 84.1 122.3 83.7 122.7 83.7C123.1 83.7 123.5 84 123.5 84.5C123.5 85 123.2 85.3 122.7 85.3Z" fill="white"/>
<path opacity="0.2" d="M122.5 87C122.3 87 122.1 86.8 122.1 86.6C122.1 86.4 122.3 86.2 122.5 86.2C122.7 86.2 122.9 86.4 122.9 86.6C122.9 86.8 122.7 87 122.5 87Z" fill="white"/>
<path d="M154.5 139.7H38.5C34.5 139.7 31.3 136.5 31.3 132.5V105.7C31.3 102.4 33.6 99.5 36.8 98.7C76.4 88.7 116.5 88.7 156.2 98.7C159.4 99.5 161.7 102.4 161.7 105.7C161.7 114.6 161.7 123.6 161.7 132.5C161.7 136.4 158.5 139.7 154.5 139.7Z" fill="#F440C7"/>
<path opacity="0.1" d="M156.2 98.6C153.7 98 151.2 97.4 148.7 96.8C152.1 99.8 154 103.1 154 106.6C154 119.5 128.2 130 96.4 130C64.6 130 38.9 119.5 38.9 106.6C38.9 103.1 40.8 99.8 44.1 96.9C41.7 97.4 39.3 98 36.9 98.6C33.7 99.4 31.4 102.3 31.4 105.6V132.4C31.4 136.4 34.6 139.6 38.6 139.6H154.5C158.5 139.6 161.7 136.4 161.7 132.4C161.7 123.5 161.7 114.5 161.7 105.6C161.7 102.3 159.4 99.4 156.2 98.6Z" fill="black"/>
<path opacity="0.2" d="M98 106.9C91.5 106.9 86.3 103.7 86.3 99.8C86.3 95.9 91.5 92.7 98 92.7C104.5 92.7 109.7 95.9 109.7 99.8C109.8 103.7 104.5 106.9 98 106.9Z" fill="white"/>
<path opacity="0.2" d="M79.9 103.3C77.9 103.3 76.3 101.8 76.3 100C76.3 98.1 77.9 96.7 79.9 96.7C81.9 96.7 83.6 98.2 83.6 100C83.6 101.8 81.9 103.3 79.9 103.3Z" fill="white"/>
<path opacity="0.2" d="M71.6 101.6C70.6 101.6 69.8 100.9 69.8 99.9C69.8 99 70.6 98.2 71.6 98.2C72.6 98.2 73.4 99 73.4 99.9C73.4 100.8 72.6 101.6 71.6 101.6Z" fill="white"/>
<path opacity="0.2" d="M116.5 103.3C114.5 103.3 112.8 101.8 112.8 100C112.8 98.1 114.4 96.7 116.5 96.7C118.5 96.7 120.2 98.2 120.2 100C120.2 101.8 118.5 103.3 116.5 103.3Z" fill="white"/>
<path opacity="0.2" d="M124.9 101.6C123.9 101.6 123.1 100.9 123.1 99.9C123.1 99 123.9 98.2 124.9 98.2C125.9 98.2 126.7 99 126.7 99.9C126.7 100.8 125.9 101.6 124.9 101.6Z" fill="white"/>
<path d="M37.2 142.6C37.2 140.4 39 138.5 41.3 138.5H151.8C154 138.5 155.9 140.3 155.9 142.6V169C155.9 171.3 154.1 173.1 151.8 173.1H41.3C39 173.1 37.2 171.3 37.2 169V142.6Z" fill="#781AB7"/>
<path opacity="0.2" d="M148 138.5H127C139.5 141.4 147.7 145.9 147.7 151.1C147.7 159.8 124.8 166.8 96.5 166.8C68.2 166.8 45.3 159.8 45.3 151.1C45.3 145.9 53.4 141.3 66 138.5H45.1C40.8 138.5 37.2 142 37.2 146.4V165.3C37.2 169.7 40.7 173.2 45.1 173.2H148C152.3 173.2 155.9 169.7 155.9 165.3V146.4C155.8 142 152.3 138.5 148 138.5Z" fill="black"/>
<path opacity="0.2" d="M98 155.3C91.5 155.3 86.3 152.6 86.3 149.3C86.3 146 91.5 143.3 98 143.3C104.5 143.3 109.7 146 109.7 149.3C109.8 152.6 104.5 155.3 98 155.3Z" fill="white"/>
<path opacity="0.2" d="M79.9 152.2C77.9 152.2 76.3 150.9 76.3 149.4C76.3 147.8 77.9 146.6 79.9 146.6C81.9 146.6 83.6 147.9 83.6 149.4C83.6 151 81.9 152.2 79.9 152.2Z" fill="white"/>
<path opacity="0.2" d="M71.6 150.8C70.6 150.8 69.8 150.2 69.8 149.4C69.8 148.6 70.6 148 71.6 148C72.6 148 73.4 148.6 73.4 149.4C73.4 150.2 72.6 150.8 71.6 150.8Z" fill="white"/>
<path opacity="0.2" d="M116.5 152.2C114.5 152.2 112.8 150.9 112.8 149.4C112.8 147.8 114.4 146.6 116.5 146.6C118.5 146.6 120.2 147.9 120.2 149.4C120.2 151 118.5 152.2 116.5 152.2Z" fill="white"/>
<path opacity="0.2" d="M124.9 150.8C123.9 150.8 123.1 150.2 123.1 149.4C123.1 148.6 123.9 148 124.9 148C125.9 148 126.7 148.6 126.7 149.4C126.7 150.2 125.9 150.8 124.9 150.8Z" fill="white"/>
<path d="M80 99.3H57.3C56.7 99.3 56.3 99.9 56 101.2C55.7 102.4 55.5 103.8 55.5 105.4C55.5 107 55.6 108.1 55.8 108.9C56 109.7 56.3 110.1 56.6 110.1H62.4V128.1C62.4 128.5 62.6 128.7 63.1 128.9C63.6 129.1 64.7 129.1 66.4 129.1C68.1 129.1 69.8 129 71.6 128.8C73.3 128.6 74.2 128.4 74.2 128.1V110.1H79.4C79.9 110.1 80.3 109.4 80.7 108.1C81 106.8 81.2 105.4 81.2 103.9C81.2 102.4 81.1 101.3 81 100.5C80.7 99.7 80.4 99.3 80 99.3ZM133.9 104.7C131.9 104.7 130 105 128.2 105.6C126.4 106.2 125.6 106.8 125.6 107.3V119.1C125.6 119.9 125.3 120.2 124.8 120.2C123.9 120.2 123.5 117.4 123.5 111.8V106.5C123.5 105.2 122.3 104.6 119.9 104.6C118.1 104.6 116.4 104.9 114.7 105.5C113.1 106.1 112.2 106.7 112.2 107.2V113C112.2 116.3 112.5 118.9 113 120.7C113.3 121.8 113.7 122.8 114.3 123.4C114.9 124 115.6 124.6 116.6 125C117.6 125.4 118.7 125.6 120 125.6C121.3 125.6 122.4 125.4 123.5 125.1C124.6 124.8 125.2 124.4 125.5 124.2C125.8 124 126 123.8 126.1 123.7H126.4V126.2C126.4 127 126.2 127.5 125.8 127.8C125.4 128.1 124.5 128.3 123.1 128.3C121.7 128.3 120 128 117.9 127.5C117.2 127.3 116.8 127.2 116.7 127.2C116.2 127.2 115.7 128 115.1 129.6C114.5 131.2 114.3 132.3 114.3 133C114.3 133.4 114.6 133.8 115.3 134.2C116.9 135.1 119.9 135.5 124.4 135.5C132.8 135.5 137.1 132.4 137.1 126.2V106.4C136.9 105.3 135.9 104.7 133.9 104.7ZM107.1 107.6C106.4 106.7 105.4 106 104.2 105.5C103 105 101.8 104.7 100.6 104.5C99.4 104.3 98 104.3 96.4 104.3C92.5 104.3 89.4 105.2 87 107C84.4 108.9 83.1 112.1 83.1 116.6C83.1 121.6 84.4 125.1 86.9 126.9C88.1 127.8 89.5 128.5 91 128.8C92.5 129.2 94.3 129.3 96.4 129.3C100.4 129.3 103.7 128.2 106.1 126.1C108.5 124 109.7 120.8 109.7 116.5C109.7 114.4 109.5 112.6 109 111.1C108.4 109.7 107.8 108.5 107.1 107.6ZM97.7 121.2C97.5 122.2 97.3 122.8 97.1 123C96.9 123.2 96.6 123.3 96.3 123.3C96 123.3 95.7 123.2 95.5 123C95.3 122.8 95.1 122.2 94.9 121.2C94.7 120.2 94.6 118.8 94.6 116.9C94.6 115 94.7 113.6 94.9 112.6C95.1 111.6 95.3 111 95.5 110.8C95.7 110.6 96 110.5 96.4 110.5C96.8 110.5 97 110.7 97.3 111C97.5 111.3 97.6 111.6 97.7 112C97.8 112.4 97.9 113.1 98 113.9C98.1 114.7 98.1 115.9 98.1 117.4C98.1 118.9 97.9 120.2 97.7 121.2Z" fill="#F4F4F4"/>
<path d="M78.9 151C78.7 150.6 78.4 150.2 78 149.7C77.6 149.2 77.2 148.9 76.6 148.6C76 148.3 75.3 148.1 74.5 147.9C73.6 147.7 72.6 147.6 71.4 147.6C70.2 147.6 69 147.8 67.7 148.1C66.4 148.4 65.5 148.8 64.8 149.2C64.1 149.6 63.8 149.9 63.8 150.2C63.8 150.9 64.1 151.7 64.7 152.6C65.3 153.5 65.7 153.9 66.1 153.9C66.2 153.9 66.5 153.8 67 153.5C67.4 153.2 68 153 68.6 152.8C69.2 152.6 69.8 152.4 70.3 152.4C70.8 152.4 71.1 152.5 71.3 152.6C71.8 152.9 72.1 153.5 72.1 154.2H71C69.5 154.2 68.2 154.4 67 154.7C66.2 154.9 65.5 155.2 64.9 155.6C64.3 156 63.8 156.5 63.4 157.1C63 157.8 62.8 158.5 62.8 159.4C62.8 160.3 62.9 161 63.2 161.7C63.5 162.4 63.8 162.8 64.2 163.2C65.2 164 66.5 164.4 68.2 164.4C70.3 164.4 71.6 163.6 72 161.9H72.2L72.4 163.5C72.4 163.7 72.5 163.8 72.5 163.9C72.6 164 72.7 164 73 164.1C73.3 164.2 73.9 164.2 74.9 164.2C75.9 164.2 76.9 164.1 77.9 164C78.9 163.9 79.4 163.7 79.4 163.5V155C79.4 154 79.3 153.1 79.2 152.5C79.2 151.9 79.1 151.4 78.9 151ZM72 159.7C72 159.9 71.9 160 71.8 160.1C71.7 160.2 71.5 160.3 71.2 160.3C70.6 160.3 70.4 159.7 70.4 158.5C70.4 158 70.5 157.5 70.8 157.1C71.1 156.7 71.5 156.5 72 156.5V159.7ZM145.1 152.5C145 151.9 144.9 151.4 144.7 151C144.5 150.6 144.2 150.2 143.8 149.7C143.4 149.2 143 148.9 142.4 148.6C141.8 148.3 141.1 148.1 140.3 147.9C139.4 147.7 138.4 147.6 137.2 147.6C136 147.6 134.8 147.8 133.5 148.1C132.2 148.4 131.3 148.8 130.6 149.2C129.9 149.6 129.6 149.9 129.6 150.2C129.6 150.9 129.9 151.7 130.5 152.6C131.1 153.5 131.5 153.9 131.9 153.9C132 153.9 132.3 153.8 132.8 153.5C133.2 153.2 133.8 153 134.4 152.8C135 152.6 135.6 152.4 136.1 152.4C136.6 152.4 136.9 152.5 137.1 152.6C137.6 152.9 137.9 153.5 137.9 154.2H137C135.5 154.2 134.2 154.4 133 154.7C132.2 154.9 131.5 155.2 130.9 155.6C130.3 156 129.8 156.5 129.4 157.1C129 157.8 128.8 158.5 128.8 159.4C128.8 160.3 128.9 161 129.2 161.7C129.5 162.4 129.8 162.8 130.2 163.2C131.2 164 132.5 164.4 134.2 164.4C136.3 164.4 137.6 163.6 138 161.9H138.2L138.4 163.5C138.4 163.7 138.5 163.8 138.5 163.9C138.6 164 138.7 164 139 164.1C139.3 164.2 139.9 164.2 140.9 164.2C141.9 164.2 142.9 164.1 143.9 164C144.9 163.9 145.4 163.7 145.4 163.5V155C145.3 154 145.3 153.2 145.1 152.5ZM137.8 159.7C137.8 159.9 137.7 160 137.6 160.1C137.5 160.2 137.3 160.3 137 160.3C136.4 160.3 136.2 159.7 136.2 158.5C136.2 158 136.3 157.5 136.6 157.1C136.9 156.7 137.3 156.5 137.8 156.5V159.7ZM60.8 157.7C59.6 157.7 57.9 157.8 55.6 157.9V145.5C55.6 145.3 55.5 145.1 55.4 144.9C55 144.4 54.2 144.1 53 144.1C51.7 144.1 50.4 144.3 49.4 144.7C48.3 145.1 47.8 145.5 47.8 145.9V163.3C47.8 163.5 48 163.7 48.3 163.8C48.6 163.9 49.2 164 50.2 164H60.5C60.8 164 61 163.6 61.2 162.7C61.4 161.8 61.5 160.7 61.5 159.5C61.5 158.3 61.2 157.7 60.8 157.7ZM125.7 142.8C125 142.4 124 142.3 122.8 142.3C120.2 142.3 118.9 143.1 118.9 144.8C118.9 146.5 120.2 147.3 122.8 147.3C125.4 147.3 126.7 146.5 126.7 144.8C126.8 143.9 126.4 143.2 125.7 142.8ZM124.1 148.4C122.8 148.4 121.7 148.6 120.6 149C119.5 149.4 119 149.8 119 150.2V163.5C119 163.7 119.2 163.9 119.5 164C119.8 164.1 120.6 164.2 121.7 164.2C122.8 164.2 123.9 164.1 125 164C126.1 163.9 126.6 163.7 126.6 163.5V149.7C126.6 148.8 125.8 148.4 124.1 148.4ZM114.3 142.3C113.1 142.3 112 142.5 110.9 142.9C109.9 143.3 109.3 143.7 109.3 144.1V147.6L109.6 149.5H109.4C109.3 149.2 109.2 149 109 148.8C108.2 148 107 147.6 105.3 147.6C103.6 147.6 102.3 148.3 101.4 149.6C100.5 150.9 100 152.9 100 155.5C100 156.8 100.1 157.9 100.2 158.9C100.3 159.6 100.4 160.1 100.5 160.6C100.6 161.1 100.9 161.5 101.1 162C101.3 162.5 101.7 162.9 102.1 163.2C102.5 163.5 103 163.8 103.6 164C104.2 164.2 104.8 164.3 105.5 164.3C106.8 164.3 107.7 164 108.4 163.4C108.9 163 109.2 162.4 109.4 161.7H109.6L109.8 163.3C109.8 163.5 109.9 163.6 109.9 163.7C110 163.8 110.1 163.8 110.4 163.9C110.7 164 111.3 164 112.2 164C113.2 164 114.2 163.9 115.2 163.8C116.2 163.7 116.8 163.5 116.8 163.3V143.4C116.8 143.2 116.7 143 116.6 142.8C116.4 142.5 115.6 142.3 114.3 142.3ZM109.4 159.7C109.3 160.1 109 160.3 108.7 160.3C108.3 160.3 108.1 160 107.9 159.3C107.7 158.7 107.6 157.6 107.6 156C107.6 153.1 107.9 151.6 108.6 151.6C108.7 151.6 108.9 151.7 109.1 151.8C109.3 151.9 109.4 152 109.4 152.2V159.7ZM93.5 147.7C92.8 147.7 92.2 147.8 91.7 148C90.4 148.4 89.4 149.2 88.9 150.3H88.7L88.4 149.1C88.3 148.4 87.6 148.1 86.4 148.1C85.2 148.1 84.1 148.3 83 148.7C81.9 149.1 81.4 149.5 81.4 149.9V163.7C81.4 163.9 81.6 164.1 81.9 164.2C82.2 164.3 83 164.4 84.1 164.4C85.2 164.4 86.3 164.3 87.4 164.2C88.5 164.1 89 163.9 89 163.7V152.7C89 152.2 89.3 151.9 89.8 151.9C90.1 151.9 90.4 152.1 90.5 152.4C90.6 152.6 90.6 152.8 90.7 153.1C90.8 153.4 90.8 153.9 90.8 154.8V163.7C90.8 163.9 91 164.1 91.3 164.2C91.6 164.3 92.4 164.4 93.5 164.4C94.6 164.4 95.7 164.3 96.8 164.2C97.9 164.1 98.4 163.9 98.4 163.7V155.1C98.4 152.6 98.1 150.7 97.4 149.6C96.7 148.2 95.4 147.7 93.5 147.7Z" fill="#F4F4F4"/>
</svg>
